<svg version="1.1" id="Layer_1" xmlns="http://www.w3.org/2000/svg" xmlns:xlink="http://www.w3.org/1999/xlink" x="0px" y="0px"
	 width="100%" viewBox="0 0 220 220" enable-background="new 0 0 220 220" xml:space="preserve">
<path fill="#000000" opacity="1.000000" stroke="none" 
	d="
M221.000000,9.000002 
	C221.000000,42.687561 221.000000,76.375122 220.649994,110.684036 
	C216.626663,109.648972 212.953354,107.992569 207.992249,105.755463 
	C207.992249,114.282784 207.846573,121.684074 208.047058,129.075974 
	C208.166656,133.485611 206.393692,138.492371 211.498260,141.736588 
	C212.202286,142.184021 212.023926,144.234634 212.023880,145.543030 
	C212.023163,166.998230 211.985413,188.453430 211.536438,209.935791 
	C209.438843,209.944366 207.760788,209.925766 206.047211,209.585510 
	C205.954941,208.836594 205.898224,208.409332 205.895325,207.517242 
	C205.966721,175.282104 205.854385,143.510880 206.077271,111.742012 
	C206.148590,101.575958 203.891083,101.008316 194.100983,98.625526 
	C194.100983,108.857346 194.057144,118.964264 194.170425,129.069427 
	C194.181458,130.054413 195.222519,131.001129 195.678574,132.013733 
	C196.493774,133.823776 197.882431,135.666092 197.894897,137.502640 
	C198.033737,157.960770 197.954575,178.420364 197.534912,198.914917 
	C195.373383,198.296295 193.611206,197.642349 191.900482,196.522919 
	C191.967560,164.234314 191.996826,132.411179 191.986328,100.588036 
	C191.984436,94.833099 185.126984,89.257767 178.998077,90.377815 
	C178.998077,95.429436 178.854736,100.578880 179.033844,105.717094 
	C179.265198,112.353218 177.011276,119.579414 183.129593,125.411537 
	C183.106918,146.272537 183.151077,166.664200 183.147858,187.371674 
	C183.060410,188.111328 183.020340,188.535172 182.575378,188.978333 
	C180.391434,188.323425 178.612381,187.649200 176.890472,186.510895 
	C176.970413,154.911240 177.000381,123.775673 177.010132,92.640099 
	C177.012146,86.245171 171.625015,81.010345 164.238434,80.679436 
	C164.238434,90.795822 164.205231,100.898315 164.298615,110.999641 
	C164.306473,111.849327 165.239471,112.659416 165.611557,113.543098 
	C166.445297,115.523209 167.851883,117.529930 167.876923,119.540115 
	C168.067642,134.856003 167.982040,150.175323 167.982422,165.493576 
	C167.982529,169.455475 167.982452,173.417358 167.982452,177.700882 
	C165.974640,177.815369 164.525436,177.898026 163.022919,177.641235 
	C162.908432,176.847824 162.847260,176.393814 162.849487,175.478699 
	C162.939682,146.554962 162.622467,118.085190 163.213715,89.634308 
	C163.379883,81.638329 161.516403,76.459938 154.060898,73.239067 
	C150.436050,71.673080 149.190536,71.845657 149.114792,75.813499 
	C148.981384,82.801994 149.019272,89.795021 149.077560,96.785385 
	C149.107086,100.324867 148.128433,104.186539 152.383102,106.471970 
	C153.108688,106.861725 153.163406,108.901772 153.163818,110.179535 
	C153.169586,127.656242 153.173676,145.133743 152.954025,162.608246 
	C152.935852,164.055405 151.295959,165.482162 150.409546,166.918396 
	C149.542526,165.446609 147.923660,163.977554 147.918304,162.502640 
	C147.779465,124.219406 147.843094,85.935478 147.753265,47.651958 
	C147.744507,43.921715 149.153519,42.749508 152.751617,42.796562 
	C164.068298,42.944561 175.391098,42.703716 186.705017,42.933708 
	C189.819214,42.997017 192.910629,44.180279 196.473770,44.902657 
	C201.632828,44.652660 206.330612,44.349648 211.260406,43.754509 
	C212.004639,40.663425 212.516846,37.864471 213.254150,34.767525 
	C213.634079,32.978245 213.788925,31.486961 214.167358,29.721870 
	C214.530685,28.289980 214.670471,27.131897 214.857422,25.590813 
	C215.597626,22.475760 216.290665,19.743710 217.180191,16.817368 
	C217.454254,16.088888 217.531799,15.554702 217.680969,14.658133 
	C217.778824,13.558319 217.805054,12.820887 218.072067,11.944431 
	C218.465866,11.480979 218.618881,11.156551 218.854706,10.484459 
	C219.625000,9.757864 220.312500,9.378933 221.000000,9.000002 
z"/>
<path fill="#000000" opacity="1.000000" stroke="none" 
	d="
M1.000000,110.000000 
	C1.000000,77.979103 1.000000,45.958210 1.347438,13.465116 
	C2.782270,14.358712 3.869665,15.724509 4.970529,17.474861 
	C5.028162,18.884029 5.072328,19.908642 4.960583,21.102764 
	C5.186489,21.855530 5.568305,22.438789 5.977325,23.361803 
	C6.071198,24.150806 6.137867,24.600052 6.180269,25.373026 
	C6.779572,28.118727 7.403141,30.540703 8.046743,33.409569 
	C8.500328,37.662495 6.749575,42.058994 11.492367,44.885536 
	C16.630713,44.909328 21.308432,44.872231 26.369064,44.770920 
	C28.722908,44.086712 30.686106,42.960583 32.666046,42.930332 
	C43.996075,42.757225 55.336243,43.062679 66.659882,42.742653 
	C71.601875,42.602978 73.224365,43.973370 73.194550,49.140980 
	C72.979149,86.470840 73.079857,123.802528 73.077843,161.133636 
	C73.077789,162.133331 73.368721,163.300339 72.955055,164.092102 
	C72.386108,165.181076 71.273766,165.986176 70.394226,166.912888 
	C69.584442,165.911285 68.667725,164.973633 68.013023,163.879257 
	C67.715874,163.382553 67.926399,162.575180 67.926338,161.908737 
	C67.924774,144.743103 67.919914,127.577461 67.939491,110.411850 
	C67.940811,109.255325 67.674782,107.575394 68.305275,107.027496 
	C72.431679,103.441689 70.841591,98.728645 70.995636,94.429764 
	C71.198433,88.770760 71.088501,83.098312 71.013741,77.432953 
	C70.991249,75.728462 70.637947,74.028343 70.298920,71.168243 
	C66.249237,73.871788 63.139221,75.948021 59.654915,78.166069 
	C58.845505,80.488144 58.038147,82.667229 58.031277,84.848846 
	C57.933556,115.893570 57.944176,146.938644 57.505951,177.992889 
	C54.241493,178.302017 53.834934,176.557877 53.837978,174.291489 
	C53.863621,155.193436 53.845718,136.095322 53.881901,116.997307 
	C53.883713,116.039680 54.213158,115.068665 54.476654,114.128151 
	C55.280327,111.259514 56.686543,108.432945 56.842735,105.535263 
	C57.199768,98.911728 56.983604,92.255432 56.931595,85.612984 
	C56.918140,83.894516 56.651073,82.178032 56.402645,79.344490 
	C53.334873,81.280998 51.176044,82.643738 48.712822,84.150757 
	C47.004745,85.877861 45.601067,87.460686 44.149933,89.507317 
	C44.135067,121.964706 44.167652,153.958282 44.112404,186.342468 
	C42.036381,187.452133 40.048191,188.171204 38.040485,188.428833 
	C38.034424,166.334915 38.047878,144.702423 38.454418,123.008980 
	C40.200638,121.703583 42.675316,120.503197 42.726215,119.207596 
	C43.075668,110.311836 42.974327,101.395355 42.848557,92.487938 
	C42.833546,91.424721 41.795898,90.375938 41.232262,89.320465 
	C40.215263,89.916023 39.198261,90.511581 38.140533,91.057884 
	C38.099808,91.008629 37.973427,91.027763 37.604275,90.976128 
	C29.433268,93.800148 28.995405,94.388451 28.993935,102.238853 
	C28.988192,132.897842 29.021870,163.556961 28.890423,194.215393 
	C28.883787,195.763184 27.661602,198.479904 26.679729,198.638687 
	C23.124588,199.213654 24.012136,196.072418 24.004934,194.165558 
	C23.933189,175.170593 23.936356,156.175171 24.006798,137.180191 
	C24.012655,135.600571 24.129084,133.337189 25.112757,132.571259 
	C28.303724,130.086670 28.005592,126.840233 28.002884,123.532669 
	C27.998653,118.367294 28.002203,113.201920 28.002356,108.036545 
	C28.002455,104.650940 28.002373,101.265335 28.002373,96.587151 
	C22.582359,100.003090 16.504622,99.565384 15.109215,106.477081 
	C15.088240,140.622116 15.123502,174.302216 15.102520,208.299927 
	C15.004766,209.045685 14.963253,209.473801 14.510530,209.921936 
	C9.669113,210.385529 9.948667,207.297256 9.948796,204.412491 
	C9.949679,184.857742 9.918543,165.302887 9.996046,145.748444 
	C10.003670,143.824905 10.674292,141.903976 11.396129,139.859955 
	C12.430462,138.535721 13.667831,137.344238 13.691294,136.129333 
	C13.861180,127.332626 13.880214,118.529716 13.743037,109.731949 
	C13.686035,106.076157 11.790135,105.459480 8.477361,107.238228 
	C6.159000,108.483047 3.504419,109.101692 1.000000,110.000000 
z"/>
<path fill="#143C85" opacity="1.000000" stroke="none" 
	d="
M1.000000,110.468658 
	C3.504419,109.101692 6.159000,108.483047 8.477361,107.238228 
	C11.790135,105.459480 13.686035,106.076157 13.743037,109.731949 
	C13.880214,118.529716 13.861180,127.332626 13.691294,136.129333 
	C13.667831,137.344238 12.430462,138.535721 11.108290,139.848480 
	C9.688097,141.898560 8.259765,143.832458 8.242662,145.778732 
	C8.072931,165.094742 8.126637,184.412781 8.138600,203.730255 
	C8.144145,212.682236 8.352539,212.888260 17.455179,212.889252 
	C79.737389,212.896011 142.019592,212.893311 204.301804,212.888977 
	C205.799942,212.888870 207.436783,213.199585 208.756012,212.698914 
	C209.996918,212.227982 210.902725,210.874054 211.955994,209.908630 
	C211.985413,188.453430 212.023163,166.998230 212.023880,145.543030 
	C212.023926,144.234634 212.202286,142.184021 211.498260,141.736588 
	C206.393692,138.492371 208.166656,133.485611 208.047058,129.075974 
	C207.846573,121.684074 207.992249,114.282784 207.992249,105.755463 
	C212.953354,107.992569 216.626663,109.648972 220.649994,111.152695 
	C221.000000,146.687561 221.000000,182.375122 220.531769,218.554260 
	C206.257767,219.065948 192.451965,219.108459 178.646210,219.102325 
	C119.430809,219.076035 60.215405,219.035400 1.000000,219.000000 
	C1.000000,182.979111 1.000000,146.958206 1.000000,110.468658 
z"/>
<path fill="#143C85" opacity="1.000000" stroke="none" 
	d="
M221.000000,8.505268 
	C220.312500,9.378933 219.625000,9.757864 218.400894,10.489235 
	C209.899689,10.530869 201.935104,10.220062 193.980087,9.692863 
	C193.989670,9.476471 193.936356,9.046555 193.864899,8.788786 
	C191.819260,8.005820 189.845856,7.025195 187.870834,7.021950 
	C136.772415,6.938006 85.673820,6.948554 34.575294,6.983298 
	C32.599842,6.984642 30.431728,6.934278 28.681633,7.679189 
	C19.453091,11.607224 10.257276,10.713489 1.000000,8.000000 
	C1.000000,5.671537 1.000000,3.343074 1.000000,1.013591 
	C74.333336,1.012570 147.666672,1.012570 221.000000,1.018855 
	C221.000000,3.353605 221.000000,5.682069 221.000000,8.505268 
z"/>
<path fill="#1A3463" opacity="1.000000" stroke="none" 
	d="
M1.000000,8.416666 
	C10.257276,10.713489 19.453091,11.607224 28.681633,7.679189 
	C30.431728,6.934278 32.599842,6.984642 34.575294,6.983298 
	C85.673820,6.948554 136.772415,6.938006 187.870834,7.021950 
	C189.845856,7.025195 191.819260,8.005820 193.399261,8.778915 
	C138.818283,9.026814 84.631493,9.026814 30.444695,9.026814 
	C30.443638,9.366780 30.442581,9.706745 30.441525,10.046711 
	C32.237148,10.046711 34.032776,10.046605 35.828400,10.046726 
	C57.484882,10.048188 79.142616,10.173943 100.796890,9.956042 
	C105.669502,9.907011 107.115936,11.557884 107.001228,16.286461 
	C106.726585,27.607771 106.689331,38.946342 106.992569,50.266262 
	C107.206635,58.257305 104.970879,66.615273 109.468063,73.977203 
	C105.491379,72.692589 105.919189,69.604240 105.911133,66.827667 
	C105.866699,51.523582 105.906837,36.219261 105.867432,20.915150 
	C105.848648,13.620516 105.200424,12.972575 97.821510,12.966301 
	C69.042969,12.941828 40.264393,12.955679 11.485832,12.962989 
	C10.322674,12.963284 8.825552,12.604521 8.070955,13.181137 
	C6.786993,14.162266 5.970170,15.754722 4.957060,17.090305 
	C3.869665,15.724509 2.782270,14.358712 1.347438,12.996458 
	C1.000000,11.611111 1.000000,10.222222 1.000000,8.416666 
z"/>
<path fill="#19305B" opacity="1.000000" stroke="none" 
	d="
M1.000000,219.500000 
	C60.215405,219.035400 119.430809,219.076035 178.646210,219.102325 
	C192.451965,219.108459 206.257767,219.065948 220.531769,219.022919 
	C220.835190,219.666672 220.774094,220.851074 220.487259,220.908524 
	C219.368118,221.132690 218.177490,221.000000 217.013428,221.000000 
	C146.338547,221.000000 75.663681,221.005463 4.988830,220.958328 
	C3.659009,220.957443 2.329602,220.333328 1.000000,219.500000 
z"/>
<path fill="#143C85" opacity="1.000000" stroke="none" 
	d="
M4.970529,17.474861 
	C5.970170,15.754722 6.786993,14.162266 8.070955,13.181137 
	C8.825552,12.604521 10.322674,12.963284 11.485832,12.962989 
	C40.264393,12.955679 69.042969,12.941828 97.821510,12.966301 
	C105.200424,12.972575 105.848648,13.620516 105.867432,20.915150 
	C105.906837,36.219261 105.866699,51.523582 105.911133,66.827667 
	C105.919189,69.604240 105.491379,72.692589 109.509903,74.437592 
	C109.975815,84.313805 110.047386,93.628342 110.092819,103.085846 
	C110.184097,103.487915 110.301514,103.747025 110.418930,104.006134 
	C110.572990,103.651405 110.727043,103.296677 110.936111,102.479752 
	C111.044746,93.364029 111.098373,84.710495 111.392487,75.877411 
	C112.433029,74.117485 113.233086,72.537125 114.064079,70.491684 
	C114.142906,51.065071 114.190804,32.103550 114.691994,13.115907 
	C118.966438,13.024458 122.787354,12.932841 126.608780,12.897957 
	C157.016220,12.620378 187.423767,12.353568 217.831284,12.083454 
	C217.805054,12.820887 217.778824,13.558319 217.552948,14.888386 
	C217.230072,15.991235 217.106888,16.501448 216.983688,17.011662 
	C216.290665,19.743710 215.597626,22.475760 214.716553,25.906849 
	C214.333603,27.735821 214.138702,28.865751 213.943787,29.995682 
	C213.788925,31.486961 213.634079,32.978245 213.275070,34.553947 
	C213.070908,34.638367 213.087128,34.209061 212.705765,34.012970 
	C206.233795,33.541382 200.143204,33.265884 194.040726,32.982410 
	C194.028854,32.974434 194.055313,32.980381 194.043762,32.754799 
	C194.032196,32.529221 193.986603,32.079777 193.834595,31.745396 
	C192.131912,30.640238 190.587448,29.214169 189.029617,29.199390 
	C172.246277,29.040157 155.460144,29.042128 138.677383,29.232311 
	C137.455734,29.246153 136.254547,31.066914 135.011078,32.512268 
	C135.008347,56.302464 135.038376,79.627975 135.070862,103.136681 
	C135.361191,103.664848 135.649063,104.009827 135.936951,104.354797 
	C136.268524,103.887672 136.600098,103.420547 136.972092,102.489197 
	C137.083313,92.707817 137.154099,83.390671 137.571167,73.969078 
	C138.949875,71.826294 140.789902,69.820587 140.873810,67.743912 
	C141.222214,59.122425 141.175949,50.476772 141.000778,41.845551 
	C140.901962,36.976891 142.858643,34.918777 147.768860,34.980988 
	C159.391083,35.128235 171.017227,35.087276 182.640305,34.972321 
	C186.432373,34.934811 190.219849,34.433201 194.474503,34.139507 
	C199.589340,34.140690 204.239090,34.146217 209.050049,34.448135 
	C209.816971,37.845230 210.422684,40.945934 211.028397,44.046635 
	C206.330612,44.349648 201.632828,44.652660 196.406677,44.540092 
	C195.154343,40.108135 192.050537,40.010532 188.970093,40.001530 
	C177.641022,39.968414 166.311813,39.958591 154.982712,39.977577 
	C146.507126,39.991779 146.013565,40.487045 146.009598,49.122337 
	C145.993210,84.775925 146.013947,120.429527 145.982620,156.083084 
	C145.976440,163.101974 145.130234,163.974319 138.291962,163.991547 
	C119.798874,164.038116 101.305527,164.036423 82.812424,163.993210 
	C75.877739,163.977005 75.039597,163.134460 75.022713,156.184891 
	C74.978188,137.858368 75.005539,119.531708 75.001266,101.205101 
	C74.997032,83.045120 74.956711,64.885056 75.007645,46.725235 
	C75.019150,42.622406 73.845116,39.956791 69.118782,39.985142 
	C56.624100,40.060085 44.128677,40.023449 31.633579,40.008362 
	C28.338097,40.004379 26.132713,41.194561 25.986153,44.835129 
	C21.308432,44.872231 16.630713,44.909328 11.458490,44.501709 
	C10.743722,42.743839 10.610354,41.408813 10.286396,40.121765 
	C9.420693,36.682426 10.713934,35.031349 14.250790,35.034309 
	C34.405399,35.051189 54.560024,35.051334 74.714638,35.065590 
	C78.520256,35.068283 80.041306,37.194759 80.025307,40.791470 
	C80.006050,45.122063 79.842049,49.464989 80.097214,53.781502 
	C81.023308,69.447861 82.074463,85.107086 83.168701,100.762695 
	C83.245926,101.867538 84.055443,102.921196 84.524437,103.998650 
	C85.037575,103.964424 85.550705,103.930206 86.063843,103.895981 
	C86.405121,101.954239 87.036369,100.013496 87.043076,98.070602 
	C87.114388,77.415901 87.119156,56.760777 87.065605,36.105968 
	C87.050011,30.090719 86.068787,29.097687 80.064720,29.071852 
	C64.407265,29.004477 48.748657,28.982758 33.092308,29.131622 
	C30.887012,29.152594 28.683449,30.201200 26.494131,30.826811 
	C24.160105,31.493771 21.880161,32.618065 19.511721,32.835323 
	C15.711466,33.183914 11.857804,32.950268 8.026712,32.962677 
	C7.403141,30.540703 6.779572,28.118727 6.635660,25.364365 
	C36.027637,25.023382 64.939957,25.014790 93.904427,25.472471 
	C93.998039,40.945751 94.039497,55.952759 94.009888,71.244492 
	C94.586746,76.232994 95.476898,80.919510 95.813797,85.645462 
	C96.144272,90.281532 95.792900,94.962936 95.996552,99.613243 
	C96.061089,101.086876 96.947693,102.524513 97.458099,103.978622 
	C98.034775,103.908203 98.611450,103.837784 99.188126,103.767365 
	C99.445999,101.580338 99.923004,99.393806 99.928055,97.206192 
	C99.982216,73.746254 99.980621,50.286133 99.951286,26.826111 
	C99.941536,19.033171 99.078011,18.117426 91.423515,18.096876 
	C71.956810,18.044617 52.489868,18.071878 33.023052,18.095371 
	C31.533417,18.097170 29.790861,17.858299 28.595814,18.514410 
	C21.068735,22.646957 12.980864,20.587627 5.116493,20.933256 
	C5.072328,19.908642 5.028162,18.884029 4.970529,17.474861 
M128.043839,67.126396 
	C128.048553,53.973995 128.212769,40.818638 127.968910,27.670847 
	C127.886833,23.245119 129.353470,21.984142 133.697250,22.035969 
	C151.508759,22.248474 169.324280,22.123051 187.138336,22.122017 
	C188.797043,22.121922 190.455750,22.122004 192.114441,22.122004 
	C190.790588,20.956297 189.497620,20.811842 188.204575,20.810942 
	C168.392685,20.797144 148.579544,20.920782 128.769852,20.713058 
	C124.232407,20.665478 122.810318,22.003078 122.852432,26.617571 
	C123.066673,50.090199 122.946281,73.565849 122.961403,97.040428 
	C122.962265,98.372261 123.125893,99.703995 123.213768,101.035782 
	C124.132660,95.706749 123.958817,90.406250 124.180305,85.122322 
	C124.413696,79.554489 122.206825,73.337013 127.937294,69.009087 
	C128.111603,68.877441 128.002457,68.370461 128.043839,67.126396 
z"/>
<path fill="#163A79" opacity="1.000000" stroke="none" 
	d="
M26.369064,44.770920 
	C26.132713,41.194561 28.338097,40.004379 31.633579,40.008362 
	C44.128677,40.023449 56.624100,40.060085 69.118782,39.985142 
	C73.845116,39.956791 75.019150,42.622406 75.007645,46.725235 
	C74.956711,64.885056 74.997032,83.045120 75.001266,101.205101 
	C75.005539,119.531708 74.978188,137.858368 75.022713,156.184891 
	C75.039597,163.134460 75.877739,163.977005 82.812424,163.993210 
	C101.305527,164.036423 119.798874,164.038116 138.291962,163.991547 
	C145.130234,163.974319 145.976440,163.101974 145.982620,156.083084 
	C146.013947,120.429527 145.993210,84.775925 146.009598,49.122337 
	C146.013565,40.487045 146.507126,39.991779 154.982712,39.977577 
	C166.311813,39.958591 177.641022,39.968414 188.970093,40.001530 
	C192.050537,40.010532 195.154343,40.108135 195.945404,44.487076 
	C192.910629,44.180279 189.819214,42.997017 186.705017,42.933708 
	C175.391098,42.703716 164.068298,42.944561 152.751617,42.796562 
	C149.153519,42.749508 147.744507,43.921715 147.753265,47.651958 
	C147.843094,85.935478 147.779465,124.219406 147.918304,162.502640 
	C147.923660,163.977554 149.542526,165.446609 150.409546,166.918396 
	C151.295959,165.482162 152.935852,164.055405 152.954025,162.608246 
	C153.173676,145.133743 153.169586,127.656242 153.163818,110.179535 
	C153.163406,108.901772 153.108688,106.861725 152.383102,106.471970 
	C148.128433,104.186539 149.107086,100.324867 149.077560,96.785385 
	C149.019272,89.795021 148.981384,82.801994 149.114792,75.813499 
	C149.190536,71.845657 150.436050,71.673080 154.060898,73.239067 
	C161.516403,76.459938 163.379883,81.638329 163.213715,89.634308 
	C162.622467,118.085190 162.939682,146.554962 162.394653,175.477844 
	C130.413040,175.944199 98.949677,175.970398 67.486382,175.940170 
	C60.835232,175.933792 59.965755,175.066635 59.963394,168.418137 
	C59.952702,138.286835 60.001690,108.155548 60.029198,78.024261 
	C63.139221,75.948021 66.249237,73.871788 70.298920,71.168243 
	C70.637947,74.028343 70.991249,75.728462 71.013741,77.432953 
	C71.088501,83.098312 71.198433,88.770760 70.995636,94.429764 
	C70.841591,98.728645 72.431679,103.441689 68.305275,107.027496 
	C67.674782,107.575394 67.940811,109.255325 67.939491,110.411850 
	C67.919914,127.577461 67.924774,144.743103 67.926338,161.908737 
	C67.926399,162.575180 67.715874,163.382553 68.013023,163.879257 
	C68.667725,164.973633 69.584442,165.911285 70.394226,166.912888 
	C71.273766,165.986176 72.386108,165.181076 72.955055,164.092102 
	C73.368721,163.300339 73.077789,162.133331 73.077843,161.133636 
	C73.079857,123.802528 72.979149,86.470840 73.194550,49.140980 
	C73.224365,43.973370 71.601875,42.602978 66.659882,42.742653 
	C55.336243,43.062679 43.996075,42.757225 32.666046,42.930332 
	C30.686106,42.960583 28.722908,44.086712 26.369064,44.770920 
z"/>
<path fill="#143C81" opacity="1.000000" stroke="none" 
	d="
M44.200237,185.951859 
	C44.167652,153.958282 44.135067,121.964706 44.430737,89.354736 
	C46.178398,87.161057 47.597809,85.583763 49.017216,84.006477 
	C51.176044,82.643738 53.334873,81.280998 56.402645,79.344490 
	C56.651073,82.178032 56.918140,83.894516 56.931595,85.612984 
	C56.983604,92.255432 57.199768,98.911728 56.842735,105.535263 
	C56.686543,108.432945 55.280327,111.259514 54.476654,114.128151 
	C54.213158,115.068665 53.883713,116.039680 53.881901,116.997307 
	C53.845718,136.095322 53.863621,155.193436 53.837978,174.291489 
	C53.834934,176.557877 54.241493,178.302017 57.979687,178.018860 
	C93.609474,178.017242 128.342850,177.998947 163.076233,177.980652 
	C164.525436,177.898026 165.974640,177.815369 167.982452,177.700882 
	C167.982452,173.417358 167.982529,169.455475 167.982422,165.493576 
	C167.982040,150.175323 168.067642,134.856003 167.876923,119.540115 
	C167.851883,117.529930 166.445297,115.523209 165.611557,113.543098 
	C165.239471,112.659416 164.306473,111.849327 164.298615,110.999641 
	C164.205231,100.898315 164.238434,90.795822 164.238434,80.679436 
	C171.625015,81.010345 177.012146,86.245171 177.010132,92.640099 
	C177.000381,123.775673 176.970413,154.911240 176.432602,186.514099 
	C135.308502,186.986313 94.699364,187.015411 54.090374,186.950943 
	C50.793140,186.945709 47.496925,186.299973 44.200237,185.951859 
z"/>
<path fill="#133D86" opacity="1.000000" stroke="none" 
	d="
M15.158764,207.982300 
	C15.123502,174.302216 15.088240,140.622116 15.420129,106.344147 
	C17.666130,104.678505 19.442514,103.202141 21.462128,102.695656 
	C22.680779,102.390038 25.519175,103.593155 25.518442,104.115387 
	C25.506853,112.372154 25.294094,120.636887 24.803328,128.880493 
	C24.620514,131.951324 23.082323,134.967590 23.053444,138.017181 
	C22.880131,156.318726 22.953167,174.622742 22.971355,192.925903 
	C22.979862,201.487610 23.466013,201.982819 32.005566,201.986023 
	C70.775017,202.000580 109.544464,201.994080 148.313919,201.993286 
	C162.457275,201.992996 176.603577,202.132187 190.741150,201.844971 
	C193.157944,201.795883 195.537491,199.914505 197.934250,198.879578 
	C197.954575,178.420364 198.033737,157.960770 197.894897,137.502640 
	C197.882431,135.666092 196.493774,133.823776 195.678574,132.013733 
	C195.222519,131.001129 194.181458,130.054413 194.170425,129.069427 
	C194.057144,118.964264 194.100983,108.857346 194.100983,98.625526 
	C203.891083,101.008316 206.148590,101.575958 206.077271,111.742012 
	C205.854385,143.510880 205.966721,175.282104 205.436935,207.521774 
	C141.669418,207.988190 78.414093,207.985245 15.158764,207.982300 
z"/>
<path fill="#133D86" opacity="1.000000" stroke="none" 
	d="
M38.061333,123.069931 
	C38.047878,144.702423 38.034424,166.334915 38.294327,188.704407 
	C40.272175,189.957245 41.975819,190.920410 43.681286,190.923645 
	C88.593201,191.008896 133.505356,191.014908 178.417175,190.912048 
	C179.939697,190.908569 181.459305,189.638641 182.980270,188.959015 
	C183.020340,188.535172 183.060410,188.111328 183.372284,187.076202 
	C184.072403,184.724518 184.863388,182.986084 184.872772,181.243439 
	C184.963943,164.332733 184.977463,147.420929 184.845963,130.510727 
	C184.831497,128.650391 183.771500,126.798180 183.196426,124.942207 
	C177.011276,119.579414 179.265198,112.353218 179.033844,105.717094 
	C178.854736,100.578880 178.998077,95.429436 178.998077,90.377815 
	C185.126984,89.257767 191.984436,94.833099 191.986328,100.588036 
	C191.996826,132.411179 191.967560,164.234314 191.441620,196.528549 
	C140.454651,197.006668 89.977982,197.022430 39.501312,197.011581 
	C31.661858,197.009888 31.010265,196.338898 31.003069,188.396881 
	C30.979820,162.742065 30.997873,137.087219 30.988791,111.432388 
	C30.986227,104.189163 29.603109,96.497963 37.538963,91.911659 
	C37.775166,91.775154 37.832630,91.329361 37.973427,91.027763 
	C37.973427,91.027763 38.099808,91.008629 38.434826,91.234131 
	C39.485649,93.046638 40.710617,94.599548 40.819649,96.227196 
	C41.119736,100.707069 41.337437,105.259438 40.862057,109.705544 
	C40.380581,114.208679 39.030792,118.618973 38.061333,123.069931 
z"/>
<path fill="#193974" opacity="1.000000" stroke="none" 
	d="
M37.604275,90.976128 
	C37.832630,91.329361 37.775166,91.775154 37.538963,91.911659 
	C29.603109,96.497963 30.986227,104.189163 30.988791,111.432388 
	C30.997873,137.087219 30.979820,162.742065 31.003069,188.396881 
	C31.010265,196.338898 31.661858,197.009888 39.501312,197.011581 
	C89.977982,197.022430 140.454651,197.006668 191.390167,196.994019 
	C193.611206,197.642349 195.373383,198.296295 197.534912,198.914917 
	C195.537491,199.914505 193.157944,201.795883 190.741150,201.844971 
	C176.603577,202.132187 162.457275,201.992996 148.313919,201.993286 
	C109.544464,201.994080 70.775017,202.000580 32.005566,201.986023 
	C23.466013,201.982819 22.979862,201.487610 22.971355,192.925903 
	C22.953167,174.622742 22.880131,156.318726 23.053444,138.017181 
	C23.082323,134.967590 24.620514,131.951324 24.803328,128.880493 
	C25.294094,120.636887 25.506853,112.372154 25.518442,104.115387 
	C25.519175,103.593155 22.680779,102.390038 21.462128,102.695656 
	C19.442514,103.202141 17.666130,104.678505 15.476366,105.879196 
	C16.504622,99.565384 22.582359,100.003090 28.002373,96.587151 
	C28.002373,101.265335 28.002455,104.650940 28.002356,108.036545 
	C28.002203,113.201920 27.998653,118.367294 28.002884,123.532669 
	C28.005592,126.840233 28.303724,130.086670 25.112757,132.571259 
	C24.129084,133.337189 24.012655,135.600571 24.006798,137.180191 
	C23.936356,156.175171 23.933189,175.170593 24.004934,194.165558 
	C24.012136,196.072418 23.124588,199.213654 26.679729,198.638687 
	C27.661602,198.479904 28.883787,195.763184 28.890423,194.215393 
	C29.021870,163.556961 28.988192,132.897842 28.993935,102.238853 
	C28.995405,94.388451 29.433268,93.800148 37.604275,90.976128 
z"/>
<path fill="#193974" opacity="1.000000" stroke="none" 
	d="
M15.102520,208.299927 
	C78.414093,207.985245 141.669418,207.988190 205.383118,207.986603 
	C205.898224,208.409332 205.954941,208.836594 205.656891,209.736084 
	C202.999512,210.456497 200.697037,210.919800 198.394241,210.921371 
	C139.852859,210.961487 81.311455,210.966766 22.770124,210.908844 
	C20.153667,210.906250 17.537855,210.252426 14.921741,209.901932 
	C14.963253,209.473801 15.004766,209.045685 15.102520,208.299927 
z"/>
<path fill="#19305B" opacity="1.000000" stroke="none" 
	d="
M14.510531,209.921936 
	C17.537855,210.252426 20.153667,210.906250 22.770124,210.908844 
	C81.311455,210.966766 139.852859,210.961487 198.394241,210.921371 
	C200.697037,210.919800 202.999512,210.456497 205.692444,210.057739 
	C207.760788,209.925766 209.438843,209.944366 211.536438,209.935791 
	C210.902725,210.874054 209.996918,212.227982 208.756012,212.698914 
	C207.436783,213.199585 205.799942,212.888870 204.301804,212.888977 
	C142.019592,212.893311 79.737389,212.896011 17.455179,212.889252 
	C8.352539,212.888260 8.144145,212.682236 8.138600,203.730255 
	C8.126637,184.412781 8.072931,165.094742 8.242662,145.778732 
	C8.259765,143.832458 9.688097,141.898560 10.749342,139.970383 
	C10.674292,141.903976 10.003670,143.824905 9.996046,145.748444 
	C9.918543,165.302887 9.949679,184.857742 9.948796,204.412491 
	C9.948667,207.297256 9.669113,210.385529 14.510531,209.921936 
z"/>
<path fill="#1A3970" opacity="1.000000" stroke="none" 
	d="
M182.575378,188.978333 
	C181.459305,189.638641 179.939697,190.908569 178.417175,190.912048 
	C133.505356,191.014908 88.593201,191.008896 43.681286,190.923645 
	C41.975819,190.920410 40.272175,189.957245 38.313839,189.165833 
	C40.048191,188.171204 42.036381,187.452133 44.112404,186.342468 
	C47.496925,186.299973 50.793140,186.945709 54.090374,186.950943 
	C94.699364,187.015411 135.308502,186.986313 176.375458,186.978180 
	C178.612381,187.649200 180.391434,188.323425 182.575378,188.978333 
z"/>
<path fill="#1A3463" opacity="1.000000" stroke="none" 
	d="
M163.022919,177.641235 
	C128.342850,177.998947 93.609474,178.017242 58.402367,178.009583 
	C57.944176,146.938644 57.933556,115.893570 58.031277,84.848846 
	C58.038147,82.667229 58.845505,80.488144 59.654915,78.166061 
	C60.001690,108.155548 59.952702,138.286835 59.963394,168.418137 
	C59.965755,175.066635 60.835232,175.933792 67.486382,175.940170 
	C98.949677,175.970398 130.413040,175.944199 162.331223,175.938965 
	C162.847260,176.393814 162.908432,176.847824 163.022919,177.641235 
z"/>
<path fill="#19305B" opacity="1.000000" stroke="none" 
	d="
M218.072067,11.944430 
	C187.423767,12.353568 157.016220,12.620378 126.608780,12.897957 
	C122.787354,12.932841 118.966438,13.024458 114.686874,12.713953 
	C116.158104,11.561833 118.082771,10.124147 120.018150,10.109576 
	C144.668030,9.923998 169.319473,9.942592 193.970505,9.909256 
	C201.935104,10.220062 209.899689,10.530869 218.318100,10.836899 
	C218.618881,11.156551 218.465866,11.480979 218.072067,11.944430 
z"/>
<path fill="#1A3970" opacity="1.000000" stroke="none" 
	d="
M183.129593,125.411537 
	C183.771500,126.798180 184.831497,128.650391 184.845963,130.510727 
	C184.977463,147.420929 184.963943,164.332733 184.872772,181.243439 
	C184.863388,182.986084 184.072403,184.724518 183.419678,186.760376 
	C183.151077,166.664200 183.106918,146.272537 183.129593,125.411537 
z"/>
<path fill="#1A3970" opacity="1.000000" stroke="none" 
	d="
M213.087128,34.209061 
	C213.087128,34.209061 213.070908,34.638367 213.049988,34.851944 
	C212.516846,37.864471 212.004639,40.663425 211.260406,43.754509 
	C210.422684,40.945934 209.816971,37.845230 209.470886,34.421906 
	C210.849396,34.135876 211.968262,34.172470 213.087128,34.209061 
z"/>
<path fill="#19305B" opacity="1.000000" stroke="none" 
	d="
M214.167358,29.721870 
	C214.138702,28.865751 214.333603,27.735821 214.669373,26.289852 
	C214.670471,27.131897 214.530685,28.289980 214.167358,29.721870 
z"/>
<path fill="#1A3463" opacity="1.000000" stroke="none" 
	d="
M217.180191,16.817368 
	C217.106888,16.501448 217.230072,15.991235 217.481308,15.250768 
	C217.531799,15.554702 217.454254,16.088888 217.180191,16.817368 
z"/>
<path fill="#1A366A" opacity="1.000000" stroke="none" 
	d="
M8.046743,33.409569 
	C11.857804,32.950268 15.711466,33.183914 19.511721,32.835323 
	C21.880161,32.618065 24.160105,31.493771 26.494131,30.826811 
	C28.683449,30.201200 30.887012,29.152594 33.092308,29.131622 
	C48.748657,28.982758 64.407265,29.004477 80.064720,29.071852 
	C86.068787,29.097687 87.050011,30.090719 87.065605,36.105968 
	C87.119156,56.760777 87.114388,77.415901 87.043076,98.070602 
	C87.036369,100.013496 86.405121,101.954239 86.063843,103.895981 
	C85.550705,103.930206 85.037575,103.964424 84.524437,103.998650 
	C84.055443,102.921196 83.245926,101.867538 83.168701,100.762695 
	C82.074463,85.107086 81.023308,69.447861 80.097214,53.781502 
	C79.842049,49.464989 80.006050,45.122063 80.025307,40.791470 
	C80.041306,37.194759 78.520256,35.068283 74.714638,35.065590 
	C54.560024,35.051334 34.405399,35.051189 14.250790,35.034309 
	C10.713934,35.031349 9.420693,36.682426 10.286396,40.121765 
	C10.610354,41.408813 10.743722,42.743839 10.997864,44.440819 
	C6.749575,42.058994 8.500328,37.662495 8.046743,33.409569 
M86.106972,80.499901 
	C86.105446,66.343498 85.918175,52.183350 86.203888,38.032749 
	C86.302933,33.127544 84.620682,31.791637 79.898254,31.894714 
	C67.080322,32.174500 54.252220,31.989164 41.428150,31.988358 
	C37.764637,31.988127 34.101120,31.988321 30.437607,31.988321 
	C30.445290,32.311962 30.452971,32.635605 30.460653,32.959248 
	C31.600767,32.959248 32.740883,32.959057 33.880997,32.959274 
	C48.203979,32.962013 62.527966,33.058323 76.849274,32.904892 
	C80.650314,32.864170 82.437065,33.981541 82.079514,38.000984 
	C81.844360,40.644501 81.961815,43.329285 82.057327,45.990711 
	C82.703377,63.993114 83.378052,81.994514 84.087204,99.994514 
	C84.112709,100.641777 84.593689,101.271095 85.071663,102.405411 
	C85.577705,101.334206 85.949745,100.909775 85.955116,100.480751 
	C86.034393,94.154114 86.064926,87.826866 86.106972,80.499901 
z"/>
<path fill="#1A3463" opacity="1.000000" stroke="none" 
	d="
M4.960583,21.102764 
	C12.980864,20.587627 21.068735,22.646957 28.595814,18.514410 
	C29.790861,17.858299 31.533417,18.097170 33.023052,18.095371 
	C52.489868,18.071878 71.956810,18.044617 91.423515,18.096876 
	C99.078011,18.117426 99.941536,19.033171 99.951286,26.826111 
	C99.980621,50.286133 99.982216,73.746254 99.928055,97.206192 
	C99.923004,99.393806 99.445999,101.580338 99.188126,103.767365 
	C98.611450,103.837784 98.034775,103.908203 97.458099,103.978622 
	C96.947693,102.524513 96.061089,101.086876 95.996552,99.613243 
	C95.792900,94.962936 96.144272,90.281532 95.813797,85.645462 
	C95.476898,80.919510 94.586746,76.232994 94.396744,71.313072 
	C95.539726,72.934448 96.764809,74.757004 96.816200,76.612076 
	C97.036095,84.549362 96.909882,92.496239 96.909882,100.439613 
	C97.930992,75.119476 97.906754,49.821575 97.959198,24.523832 
	C97.966400,21.046160 95.767212,20.966206 93.294548,20.966993 
	C72.805489,20.973522 52.316383,20.954363 31.827497,21.014624 
	C30.582878,21.018286 29.340052,21.632311 27.654264,21.980051 
	C20.124800,22.339193 13.037460,22.680620 5.950122,23.022047 
	C5.568305,22.438789 5.186489,21.855530 4.960583,21.102764 
z"/>
<path fill="#193974" opacity="1.000000" stroke="none" 
	d="
M5.977325,23.361803 
	C13.037460,22.680620 20.124800,22.339193 28.116413,21.990513 
	C49.017010,21.988958 69.013451,21.964348 89.009460,22.046877 
	C91.026459,22.055201 94.153099,20.918993 93.852272,25.006195 
	C64.939957,25.014790 36.027637,25.023382 6.659928,25.040638 
	C6.137867,24.600052 6.071198,24.150806 5.977325,23.361803 
z"/>
<path fill="#193974" opacity="1.000000" stroke="none" 
	d="
M38.454414,123.008980 
	C39.030792,118.618973 40.380581,114.208679 40.862057,109.705544 
	C41.337437,105.259438 41.119736,100.707069 40.819649,96.227196 
	C40.710617,94.599548 39.485649,93.046638 38.475552,91.283386 
	C39.198261,90.511581 40.215263,89.916023 41.232262,89.320465 
	C41.795898,90.375938 42.833546,91.424721 42.848557,92.487938 
	C42.974327,101.395355 43.075668,110.311836 42.726215,119.207596 
	C42.675316,120.503197 40.200638,121.703583 38.454414,123.008980 
z"/>
<path fill="#1A3970" opacity="1.000000" stroke="none" 
	d="
M48.712822,84.150757 
	C47.597809,85.583763 46.178398,87.161057 44.478188,88.890923 
	C45.601067,87.460686 47.004745,85.877861 48.712822,84.150757 
z"/>
<path fill="#000000" opacity="1.000000" stroke="none" 
	d="
M193.980087,9.692863 
	C169.319473,9.942592 144.668030,9.923998 120.018150,10.109576 
	C118.082771,10.124147 116.158104,11.561833 114.233582,12.740070 
	C114.190804,32.103550 114.142906,51.065071 113.678345,70.541153 
	C112.558456,72.722801 111.855225,74.389885 111.151993,76.056969 
	C111.098373,84.710495 111.044746,93.364029 110.745506,102.478683 
	C110.499893,102.939804 110.118958,102.942879 110.118958,102.942879 
	C110.047386,93.628342 109.975815,84.313805 109.862411,74.538879 
	C104.970879,66.615273 107.206635,58.257305 106.992569,50.266262 
	C106.689331,38.946342 106.726585,27.607771 107.001228,16.286461 
	C107.115936,11.557884 105.669502,9.907011 100.796890,9.956042 
	C79.142616,10.173943 57.484882,10.048188 35.828400,10.046726 
	C34.032776,10.046605 32.237148,10.046711 30.441525,10.046711 
	C30.442581,9.706745 30.443638,9.366780 30.444695,9.026814 
	C84.631493,9.026814 138.818283,9.026814 193.470718,9.036684 
	C193.936356,9.046555 193.989670,9.476471 193.980087,9.692863 
z"/>
<path fill="#000000" opacity="1.000000" stroke="none" 
	d="
M128.034637,67.582428 
	C128.002457,68.370461 128.111603,68.877441 127.937294,69.009087 
	C122.206825,73.337013 124.413696,79.554489 124.180305,85.122322 
	C123.958817,90.406250 124.132660,95.706749 123.213768,101.035782 
	C123.125893,99.703995 122.962265,98.372261 122.961403,97.040428 
	C122.946281,73.565849 123.066673,50.090199 122.852432,26.617571 
	C122.810318,22.003078 124.232407,20.665478 128.769852,20.713058 
	C148.579544,20.920782 168.392685,20.797144 188.204575,20.810942 
	C189.497620,20.811842 190.790588,20.956297 192.114441,22.122004 
	C190.455750,22.122004 188.797043,22.121922 187.138336,22.122017 
	C169.324280,22.123051 151.508759,22.248474 133.697250,22.035969 
	C129.353470,21.984142 127.886833,23.245119 127.968910,27.670847 
	C128.212769,40.818638 128.048553,53.973995 128.034637,67.582428 
z"/>
<path fill="#000000" opacity="1.000000" stroke="none" 
	d="
M93.904427,25.472471 
	C94.153099,20.918993 91.026459,22.055201 89.009460,22.046877 
	C69.013451,21.964348 49.017010,21.988958 28.558540,21.972797 
	C29.340052,21.632311 30.582878,21.018286 31.827497,21.014624 
	C52.316383,20.954363 72.805489,20.973522 93.294548,20.966993 
	C95.767212,20.966206 97.966400,21.046160 97.959198,24.523832 
	C97.906754,49.821575 97.930992,75.119476 96.909882,100.439613 
	C96.909882,92.496239 97.036095,84.549362 96.816200,76.612076 
	C96.764809,74.757004 95.539726,72.934448 94.467804,71.028351 
	C94.039497,55.952759 93.998039,40.945751 93.904427,25.472471 
z"/>
<path fill="#000000" opacity="1.000000" stroke="none" 
	d="
M193.986603,32.079777 
	C193.986603,32.079777 194.032196,32.529221 193.570007,32.756355 
	C177.133636,32.984436 161.156738,33.150921 145.186935,32.887032 
	C140.295807,32.806213 139.132889,34.519756 138.973465,39.195438 
	C138.576981,50.824188 140.980637,62.618065 137.224884,74.073517 
	C137.154099,83.390671 137.083313,92.707817 136.661499,102.496597 
	C135.896439,102.963310 135.482422,102.958397 135.068405,102.953476 
	C135.038376,79.627975 135.008347,56.302464 135.477539,32.493866 
	C155.313370,32.033779 174.649979,32.056778 193.986603,32.079777 
z"/>
<path fill="#1A3970" opacity="1.000000" stroke="none" 
	d="
M137.571167,73.969078 
	C140.980637,62.618065 138.576981,50.824188 138.973465,39.195438 
	C139.132889,34.519756 140.295807,32.806213 145.186935,32.887032 
	C161.156738,33.150921 177.133636,32.984436 193.581573,32.981937 
	C194.055313,32.980381 194.028854,32.974434 194.028412,33.270721 
	C194.021759,33.759293 194.015579,33.951572 194.009415,34.143848 
	C190.219849,34.433201 186.432373,34.934811 182.640305,34.972321 
	C171.017227,35.087276 159.391083,35.128235 147.768860,34.980988 
	C142.858643,34.918777 140.901962,36.976891 141.000778,41.845551 
	C141.175949,50.476772 141.222214,59.122425 140.873810,67.743912 
	C140.789902,69.820587 138.949875,71.826294 137.571167,73.969078 
z"/>
<path fill="#1A366A" opacity="1.000000" stroke="none" 
	d="
M193.834595,31.745396 
	C174.649979,32.056778 155.313370,32.033779 135.510300,32.029179 
	C136.254547,31.066914 137.455734,29.246153 138.677383,29.232311 
	C155.460144,29.042128 172.246277,29.040157 189.029617,29.199390 
	C190.587448,29.214169 192.131912,30.640238 193.834595,31.745396 
z"/>
<path fill="#19305B" opacity="1.000000" stroke="none" 
	d="
M194.474503,34.139507 
	C194.015579,33.951572 194.021759,33.759293 194.040283,33.278698 
	C200.143204,33.265884 206.233795,33.541382 212.705765,34.012970 
	C211.968262,34.172470 210.849396,34.135876 209.309692,34.125511 
	C204.239090,34.146217 199.589340,34.140690 194.474503,34.139507 
z"/>
<path fill="#1A3463" opacity="1.000000" stroke="none" 
	d="
M111.392487,75.877411 
	C111.855225,74.389885 112.558456,72.722801 113.647415,71.006241 
	C113.233086,72.537125 112.433029,74.117485 111.392487,75.877411 
z"/>
<path fill="#1A3970" opacity="1.000000" stroke="none" 
	d="
M135.070862,103.136673 
	C135.482422,102.958397 135.896439,102.963310 136.621063,102.960831 
	C136.600098,103.420547 136.268524,103.887672 135.936951,104.354797 
	C135.649063,104.009827 135.361191,103.664848 135.070862,103.136673 
z"/>
<path fill="#1A3463" opacity="1.000000" stroke="none" 
	d="
M110.092819,103.085846 
	C110.118958,102.942879 110.499893,102.939804 110.690498,102.940872 
	C110.727043,103.296677 110.572990,103.651405 110.418930,104.006134 
	C110.301514,103.747025 110.184097,103.487915 110.092819,103.085846 
z"/>
<path fill="#000000" opacity="1.000000" stroke="none" 
	d="
M86.106995,80.999832 
	C86.064926,87.826866 86.034393,94.154114 85.955116,100.480751 
	C85.949745,100.909775 85.577705,101.334206 85.071663,102.405411 
	C84.593689,101.271095 84.112709,100.641777 84.087204,99.994514 
	C83.378052,81.994514 82.703377,63.993114 82.057327,45.990711 
	C81.961815,43.329285 81.844360,40.644501 82.079514,38.000984 
	C82.437065,33.981541 80.650314,32.864170 76.849274,32.904892 
	C62.527966,33.058323 48.203979,32.962013 33.880997,32.959274 
	C32.740883,32.959057 31.600767,32.959248 30.460653,32.959248 
	C30.452971,32.635605 30.445290,32.311962 30.437607,31.988321 
	C34.101120,31.988321 37.764637,31.988127 41.428150,31.988358 
	C54.252220,31.989164 67.080322,32.174500 79.898254,31.894714 
	C84.620682,31.791637 86.302933,33.127544 86.203888,38.032749 
	C85.918175,52.183350 86.105446,66.343498 86.106995,80.999832 
z"/>
</svg>